<svg viewBox="0 0 120 100"
    xmlns="http://www.w3.org/2000/svg">
    <rect width="120" height="100" rx="18" fill="#1a3a5c"/>
    <path d="M22 56 Q22 12 60 12 Q98 12 98 56 Z" fill="#8b5a2b" stroke="#5d3a1a" stroke-width="3"/>
    <path d="M30 52 Q32 20 60 18 Q88 20 90 52" fill="none" stroke="#6d4520" stroke-width="3" opacity="0.6"/>
    <line x1="22" y1="56" x2="98" y2="56" stroke="#f1c40f" stroke-width="3"/>
    <ellipse cx="60" cy="55" rx="33" ry="9" fill="#f1c40f" stroke="#b7950b" stroke-width="2"/>
    <circle cx="40" cy="51" r="5" fill="#f7d54d" stroke="#b7950b" stroke-width="1.5"/>
    <circle cx="54" cy="48" r="5.5" fill="#f7d54d" stroke="#b7950b" stroke-width="1.5"/>
    <circle cx="69" cy="49" r="5" fill="#f7d54d" stroke="#b7950b" stroke-width="1.5"/>
    <circle cx="81" cy="52" r="4.5" fill="#f7d54d" stroke="#b7950b" stroke-width="1.5"/>
    <circle cx="47" cy="55" r="3.5" fill="#e74c3c"/>
    <circle cx="62" cy="53" r="3.5" fill="#2ecc71"/>
    <circle cx="74" cy="56" r="3" fill="#3498db"/>
    <circle cx="33" cy="55" r="2.5" fill="#9b59b6"/>
    <rect x="20" y="56" width="80" height="34" rx="5" fill="#8b5a2b" stroke="#5d3a1a" stroke-width="3"/>
    <line x1="23" y1="73" x2="97" y2="73" stroke="#5d3a1a" stroke-width="2" opacity="0.5"/>
    <rect x="32" y="56" width="8" height="33" fill="#4a4a4a"/>
    <rect x="80" y="56" width="8" height="33" fill="#4a4a4a"/>
    <circle cx="36" cy="64" r="1.6" fill="#f1c40f"/>
    <circle cx="36" cy="82" r="1.6" fill="#f1c40f"/>
    <circle cx="84" cy="64" r="1.6" fill="#f1c40f"/>
    <circle cx="84" cy="82" r="1.6" fill="#f1c40f"/>
    <rect x="52" y="58" width="16" height="16" rx="3" fill="#f1c40f" stroke="#b7950b" stroke-width="2"/>
    <circle cx="60" cy="65" r="2.5" fill="#5d3a1a"/>
    <rect x="59" y="66" width="2" height="5" fill="#5d3a1a"/>
</svg>
